<?xml version="1.0" standalone="no"?>
<!DOCTYPE svg PUBLIC "-//W3C//DTD SVG 20010904//EN"
 "http://www.w3.org/TR/2001/REC-SVG-20010904/DTD/svg10.dtd">
<svg version="1.0" xmlns="http://www.w3.org/2000/svg"
 width="128.000000pt" height="128.000000pt" viewBox="0 0 128.000000 128.000000"
 preserveAspectRatio="xMidYMid meet">
<metadata>
Created by potrace 1.14, written by Peter Selinger 2001-2017
</metadata>
<g transform="translate(0.000000,128.000000) scale(0.100000,-0.100000)"
fill="#000000" stroke="none">
<path d="M120 640 l0 -440 120 0 120 0 0 160 0 160 40 0 40 0 0 -160 0 -160
120 0 120 0 0 440 0 440 -120 0 -120 0 0 -160 0 -160 -40 0 -40 0 0 160 0 160
-120 0 -120 0 0 -440z"/>
<path d="M920 1000 l0 -80 -80 0 -80 0 0 -120 0 -120 80 0 80 0 0 -240 0 -240
120 0 120 0 0 440 0 440 -120 0 -120 0 0 -80z"/>
</g>
</svg>
