<?xml version="1.0" standalone="no"?>
<!DOCTYPE svg PUBLIC "-//W3C//DTD SVG 20010904//EN"
 "http://www.w3.org/TR/2001/REC-SVG-20010904/DTD/svg10.dtd">
<svg version="1.0" xmlns="http://www.w3.org/2000/svg"
 width="512.000000pt" height="512.000000pt" viewBox="0 0 512.000000 512.000000"
 preserveAspectRatio="xMidYMid meet">
<metadata>
Created by potrace 1.14, written by Peter Selinger 2001-2017
</metadata>
<g transform="translate(0.000000,512.000000) scale(0.100000,-0.100000)"
fill="#000000" stroke="none">
<path d="M2454 4361 c-43 -21 -204 -100 -356 -175 -463 -227 -819 -402 -1113
-546 -819 -402 -791 -387 -809 -425 -24 -50 -22 -356 2 -398 19 -32 22 -34
402 -200 157 -68 341 -149 410 -180 69 -30 287 -126 485 -212 198 -87 378
-166 400 -176 22 -10 117 -51 210 -92 94 -41 191 -84 215 -95 132 -60 240
-102 260 -102 39 0 88 30 104 65 13 27 16 75 16 275 0 269 -5 294 -63 324 -31
16 -241 104 -262 110 -5 2 -21 8 -35 13 -129 54 -216 89 -272 112 -240 94
-898 367 -898 373 0 4 10 10 21 13 12 4 92 41 178 82 86 42 201 97 256 123
132 63 322 154 465 223 63 30 158 75 210 100 333 157 367 175 384 211 13 28
16 73 16 276 0 271 -5 296 -65 324 -49 23 -73 20 -161 -23z"/>
<path d="M2515 3390 c-11 -4 -31 -20 -45 -35 l-25 -27 -3 -254 c-3 -269 2
-303 46 -330 10 -7 137 -60 282 -119 262 -106 291 -118 360 -148 19 -8 216
-89 437 -179 222 -89 403 -166 403 -169 0 -3 -19 -13 -42 -23 -24 -11 -97 -45
-163 -76 -66 -32 -173 -83 -237 -114 -234 -111 -346 -165 -492 -235 -82 -40
-190 -92 -240 -115 -250 -119 -303 -146 -326 -171 l-25 -27 -3 -254 c-3 -218
-1 -259 13 -288 20 -42 74 -70 119 -63 17 3 189 83 381 177 642 316 830 407
840 410 6 1 22 11 37 21 14 10 29 19 32 19 6 0 196 93 797 389 241 118 268
134 283 165 23 49 23 343 0 392 -17 36 -26 41 -244 137 -364 159 -451 197
-520 227 -41 18 -79 36 -85 41 -5 5 -14 9 -21 9 -7 0 -45 15 -86 34 -40 19
-140 63 -223 99 -82 36 -175 76 -205 90 -30 14 -83 37 -117 51 -35 14 -87 37
-115 50 -29 14 -143 64 -253 112 -110 48 -222 97 -250 109 -221 101 -265 114
-310 95z"/>
</g>
</svg>
